{
  "accessors": [
    {
      "bufferView": 2,
      "componentType": 5126,
      "count": 110,
      "max": [
        3.366609573364258,
        0.3174683153629303,
        0.3886291980743408
      ],
      "min": [
        -0.026501651853322983,
        -0.36825937032699585,
        -0.2998981475830078
      ],
      "type": "VEC3"
    },
    {
      "bufferView": 2,
      "byteOffset": 1320,
      "componentType": 5126,
      "count": 110,
      "max": [
        0.9998567700386047,
        0.9786245226860046,
        0.8989244699478149
      ],
      "min": [
        -0.9999693036079407,
        -0.9059039354324341,
        -0.9712651968002319
      ],
      "type": "VEC3"
    },
    {
      "bufferView": 1,
      "componentType": 5126,
      "count": 110,
      "max": [
        0.9791903495788574,
        1.0
      ],
      "min": [
        0.019117897376418114,
        0.02487286552786827
      ],
      "type": "VEC2"
    },
    {
      "bufferView": 1,
      "byteOffset": 880,
      "componentType": 5126,
      "count": 110,
      "max": [
        0.0,
        0.0
      ],
      "min": [
        0.0,
        0.0
      ],
      "type": "VEC2"
    },
    {
      "bufferView": 0,
      "componentType": 5125,
      "count": 624,
      "type": "SCALAR"
    },
    {
      "bufferView": 2,
      "byteOffset": 2640,
      "componentType": 5126,
      "count": 104,
      "max": [
        0.30057772994041443,
        0.35316234827041626,
        3.5573172569274902
      ],
      "min": [
        -0.35154420137405396,
        -0.3355024755001068,
        0.16385208070278168
      ],
      "type": "VEC3"
    },
    {
      "bufferView": 2,
      "byteOffset": 3888,
      "componentType": 5126,
      "count": 104,
      "max": [
        0.9702596664428711,
        0.9856141805648804,
        0.9999973177909851
      ],
      "min": [
        -0.9059290289878845,
        -0.9261062145233154,
        -1.0
      ],
      "type": "VEC3"
    },
    {
      "bufferView": 1,
      "byteOffset": 1760,
      "componentType": 5126,
      "count": 104,
      "max": [
        0.9421622157096863,
        1.0
      ],
      "min": [
        0.018432535231113434,
        0.04527207836508751
      ],
      "type": "VEC2"
    },
    {
      "bufferView": 1,
      "byteOffset": 2592,
      "componentType": 5126,
      "count": 104,
      "max": [
        0.0,
        0.0
      ],
      "min": [
        0.0,
        0.0
      ],
      "type": "VEC2"
    },
    {
      "bufferView": 0,
      "byteOffset": 2496,
      "componentType": 5125,
      "count": 552,
      "type": "SCALAR"
    },
    {
      "bufferView": 2,
      "byteOffset": 5136,
      "componentType": 5126,
      "count": 132,
      "max": [
        0.34474965929985046,
        -0.07745838910341263,
        0.3589561879634857
      ],
      "min": [
        -0.32464903593063354,
        -3.4714014530181885,
        -0.29733291268348694
      ],
      "type": "VEC3"
    },
    {
      "bufferView": 2,
      "byteOffset": 6720,
      "componentType": 5126,
      "count": 132,
      "max": [
        0.9854654669761658,
        0.9999595284461975,
        0.95297771692276
      ],
      "min": [
        -0.9655178189277649,
        -0.9999310374259949,
        -0.9136350750923157
      ],
      "type": "VEC3"
    },
    {
      "bufferView": 1,
      "byteOffset": 3424,
      "componentType": 5126,
      "count": 132,
      "max": [
        0.9871827960014343,
        1.0
      ],
      "min": [
        0.036527521908283234,
        0.023079507052898407
      ],
      "type": "VEC2"
    },
    {
      "bufferView": 1,
      "byteOffset": 4480,
      "componentType": 5126,
      "count": 132,
      "max": [
        0.0,
        0.0
      ],
      "min": [
        0.0,
        0.0
      ],
      "type": "VEC2"
    },
    {
      "bufferView": 0,
      "byteOffset": 4704,
      "componentType": 5125,
      "count": 744,
      "type": "SCALAR"
    },
    {
      "bufferView": 2,
      "byteOffset": 8304,
      "componentType": 5126,
      "count": 52,
      "max": [
        0.320579469203949,
        0.32057952880859375,
        0.32057976722717285
      ],
      "min": [
        -0.3205797076225281,
        -0.32057952880859375,
        -0.3205794095993042
      ],
      "type": "VEC3"
    },
    {
      "bufferView": 2,
      "byteOffset": 8928,
      "componentType": 5126,
      "count": 52,
      "max": [
        0.6241507530212402,
        0.624150812625885,
        0.6241510510444641
      ],
      "min": [
        -0.6241508722305298,
        -0.624150812625885,
        -0.6241512298583984
      ],
      "type": "VEC3"
    },
    {
      "bufferView": 1,
      "byteOffset": 5536,
      "componentType": 5126,
      "count": 52,
      "max": [
        0.0,
        0.0
      ],
      "min": [
        0.0,
        0.0
      ],
      "type": "VEC2"
    },
    {
      "bufferView": 1,
      "byteOffset": 5952,
      "componentType": 5126,
      "count": 52,
      "max": [
        0.875,
        1.0
      ],
      "min": [
        0.125,
        0.0
      ],
      "type": "VEC2"
    },
    {
      "bufferView": 0,
      "byteOffset": 7680,
      "componentType": 5125,
      "count": 288,
      "type": "SCALAR"
    }
  ],
  "asset": {
    "extras": {
      "author": "hamdanbasri (https://sketchfab.com/hamdanbasri)",
      "license": "CC-BY-4.0 (http://creativecommons.org/licenses/by/4.0/)",
      "source": "https://sketchfab.com/3d-models/transform-gizmo-8d1edffdedda4898b3fb1c3c4c08113c",
      "title": "Transform Gizmo"
    },
    "generator": "Sketchfab-13.98.0",
    "version": "2.0"
  },
  "bufferViews": [
    {
      "buffer": 0,
      "byteLength": 8832,
      "name": "floatBufferViews",
      "target": 34963
    },
    {
      "buffer": 0,
      "byteLength": 6368,
      "byteOffset": 8832,
      "byteStride": 8,
      "name": "floatBufferViews",
      "target": 34962
    },
    {
      "buffer": 0,
      "byteLength": 9552,
      "byteOffset": 15200,
      "byteStride": 12,
      "name": "floatBufferViews",
      "target": 34962
    }
  ],
  "buffers": [
    {
      "byteLength": 24752,
      "uri": "scene.bin"
    }
  ],
  "extensionsRequired": [
    "KHR_materials_pbrSpecularGlossiness"
  ],
  "extensionsUsed": [
    "KHR_materials_pbrSpecularGlossiness"
  ],
  "materials": [
    {
      "doubleSided": true,
      "extensions": {
        "KHR_materials_pbrSpecularGlossiness": {
          "diffuseFactor": [
            0.7999999999999999,
            0.0048034899999999945,
            0.0,
            1.0
          ],
          "glossinessFactor": 0.4556204361765674,
          "specularFactor": [
            0.0,
            0.0,
            0.0
          ]
        }
      },
      "name": "XAxis"
    },
    {
      "doubleSided": true,
      "extensions": {
        "KHR_materials_pbrSpecularGlossiness": {
          "diffuseFactor": [
            0.0251474,
            0.0,
            0.8,
            1.0
          ],
          "glossinessFactor": 0.014111005987966649,
          "specularFactor": [
            0.0,
            0.0,
            0.0
          ]
        }
      },
      "name": "ZAxis"
    },
    {
      "doubleSided": true,
      "extensions": {
        "KHR_materials_pbrSpecularGlossiness": {
          "diffuseFactor": [
            0.0,
            0.8,
            0.0440004,
            1.0
          ],
          "glossinessFactor": 0.12864922593348443,
          "specularFactor": [
            0.0,
            0.0,
            0.0
          ]
        }
      },
      "name": "YAxis"
    },
    {
      "doubleSided": true,
      "extensions": {
        "KHR_materials_pbrSpecularGlossiness": {
          "diffuseFactor": [
            0.8,
            0.8,
            0.8,
            1.0
          ],
          "glossinessFactor": 0.19595917942265426,
          "specularFactor": [
            0.0,
            0.0,
            0.0
          ]
        }
      },
      "name": "Center"
    }
  ],
  "meshes": [
    {
      "name": "z.002_XAxis_0",
      "primitives": [
        {
          "attributes": {
            "NORMAL": 1,
            "POSITION": 0,
            "TEXCOORD_0": 2,
            "TEXCOORD_1": 3
          },
          "indices": 4,
          "material": 0,
          "mode": 4
        }
      ]
    },
    {
      "name": "z.002_ZAxis_0",
      "primitives": [
        {
          "attributes": {
            "NORMAL": 6,
            "POSITION": 5,
            "TEXCOORD_0": 7,
            "TEXCOORD_1": 8
          },
          "indices": 9,
          "material": 1,
          "mode": 4
        }
      ]
    },
    {
      "name": "z.002_YAxis_0",
      "primitives": [
        {
          "attributes": {
            "NORMAL": 11,
            "POSITION": 10,
            "TEXCOORD_0": 12,
            "TEXCOORD_1": 13
          },
          "indices": 14,
          "material": 2,
          "mode": 4
        }
      ]
    },
    {
      "name": "z.002_Center_0",
      "primitives": [
        {
          "attributes": {
            "NORMAL": 16,
            "POSITION": 15,
            "TEXCOORD_0": 17,
            "TEXCOORD_1": 18
          },
          "indices": 19,
          "material": 3,
          "mode": 4
        }
      ]
    }
  ],
  "nodes": [
    {
      "children": [
        1
      ],
      "matrix": [
        0.36113348603248596,
        0.0,
        0.0,
        0.0,
        0.0,
        8.018774223128266e-17,
        -0.36113348603248596,
        0.0,
        0.0,
        0.36113348603248596,
        8.018774223128266e-17,
        0.0,
        0.0,
        0.0,
        0.0,
        1.0
      ],
      "name": "Sketchfab_model"
    },
    {
      "children": [
        2
      ],
      "matrix": [
        0.009999999776482582,
        0.0,
        0.0,
        0.0,
        0.0,
        0.0,
        0.009999999776482582,
        0.0,
        0.0,
        -0.009999999776482582,
        0.0,
        0.0,
        0.0,
        0.0,
        0.0,
        1.0
      ],
      "name": "33f1eeb2c4eb49c6b8eb6489fc8be03e.fbx"
    },
    {
      "children": [
        3
      ],
      "name": "RootNode"
    },
    {
      "children": [
        4,
        5,
        6,
        7
      ],
      "matrix": [
        100.0,
        0.0,
        0.0,
        0.0,
        0.0,
        -1.629206793918314e-05,
        -99.99999999999868,
        0.0,
        0.0,
        99.99999999999868,
        -1.629206793918314e-05,
        0.0,
        0.0,
        0.0,
        0.0,
        1.0
      ],
      "name": "z.002"
    },
    {
      "mesh": 0,
      "name": "z.002_XAxis_0"
    },
    {
      "mesh": 1,
      "name": "z.002_ZAxis_0"
    },
    {
      "mesh": 2,
      "name": "z.002_YAxis_0"
    },
    {
      "mesh": 3,
      "name": "z.002_Center_0"
    }
  ],
  "scene": 0,
  "scenes": [
    {
      "name": "Sketchfab_Scene",
      "nodes": [
        0
      ]
    }
  ]
}
